<svg xmlns="http://www.w3.org/2000/svg" viewBox="0 0 64 64" fill="none">
  <rect width="64" height="64" rx="14" fill="#006233"/>
  
  <!-- Shield -->
  <path d="M32 12 L48 20 L48 38 C48 46 41 52 32 56 C23 52 16 46 16 38 L16 20 Z" 
        fill="rgba(255,255,255,0.1)" stroke="white" stroke-width="1.5"/>
  
  <!-- Scale pillar -->
  <line x1="32" y1="22" x2="32" y2="44" stroke="white" stroke-width="2.5" stroke-linecap="round"/>
  <!-- Beam -->
  <line x1="22" y1="26" x2="42" y2="26" stroke="white" stroke-width="2.5" stroke-linecap="round"/>
  <!-- Chains -->
  <line x1="22" y1="26" x2="22" y2="34" stroke="white" stroke-width="1.5" stroke-linecap="round"/>
  <line x1="42" y1="26" x2="42" y2="34" stroke="white" stroke-width="1.5" stroke-linecap="round"/>
  <!-- Plates -->
  <path d="M17 34 Q19.5 38 22 34 Q24.5 38 27 34" stroke="white" stroke-width="1.5" fill="none" stroke-linecap="round"/>
  <path d="M37 34 Q39.5 38 42 34 Q44.5 38 47 34" stroke="white" stroke-width="1.5" fill="none" stroke-linecap="round"/>
  <!-- Base -->
  <rect x="27" y="44" width="10" height="2.5" rx="1.25" fill="white"/>
  
  <!-- Digital dots -->
  <circle cx="25" cy="20" r="2" fill="#FCD116"/>
  <circle cx="39" cy="20" r="2" fill="#FCD116"/>
  <circle cx="32" cy="17" r="2" fill="#FCD116"/>
</svg>
